<svg width="555" height="109" viewBox="0 0 555 109" fill="none" xmlns="http://www.w3.org/2000/svg">
<g filter="url(#filter0_d_1_2)">
<path d="M22.16 70.288H58V90H1.68V0.399994H57.36V20.112H22.16V34.96H54.16V54.416H22.16V70.288ZM125.107 43.536C131.763 47.76 136.115 54.672 136.115 63.76C136.115 79.632 123.187 90 107.187 90H69.555V0.399994H104.627C120.243 0.399994 132.915 10.512 132.915 26C132.915 33.424 129.971 39.312 125.107 43.536ZM104.627 19.6H90.035V35.472H104.627C109.235 35.472 112.435 32.144 112.435 27.536C112.435 22.928 109.363 19.6 104.627 19.6ZM107.187 70.8C112.307 70.8 115.635 67.216 115.635 62.224C115.635 57.232 112.307 53.648 107.187 53.648H90.035V70.8H107.187ZM232.1 0.399994H252.58V90H237.22L202.66 41.36V90H182.18V0.399994H197.54L232.1 49.04V0.399994ZM347.034 90L330.138 60.56H320.41V90H299.93V0.399994H335.77C352.794 0.399994 366.49 14.096 366.49 31.12C366.49 42.128 359.834 52.112 349.978 57.104L369.05 90H347.034ZM320.41 19.6V42.64H335.77C341.402 42.64 346.01 37.648 346.01 31.12C346.01 24.592 341.402 19.6 335.77 19.6H320.41ZM399.16 70.288H435V90H378.68V0.399994H434.36V20.112H399.16V34.96H431.16V54.416H399.16V70.288ZM471.801 91.792C457.593 91.792 447.353 85.776 441.465 74.384L459.257 64.144C462.073 69.136 465.017 71.824 471.929 71.824C480.889 71.824 483.577 66.704 483.577 61.2V0.399994H504.057V61.2C504.057 80.912 490.233 91.792 471.801 91.792Z" fill="white"/>
<path d="M146.305 0.399994H166.785V90H146.305V0.399994ZM518.805 0.399994H539.285V90H518.805V0.399994Z" fill="#C93F1D"/>
</g>
<defs>
<filter id="filter0_d_1_2" x="0.679993" y="0.399994" width="553.605" height="108.392" filterUnits="userSpaceOnUse" color-interpolation-filters="sRGB">
<feFlood flood-opacity="0" result="BackgroundImageFix"/>
<feColorMatrix in="SourceAlpha" type="matrix" values="0 0 0 0 0 0 0 0 0 0 0 0 0 0 0 0 0 0 127 0" result="hardAlpha"/>
<feOffset dx="7" dy="9"/>
<feGaussianBlur stdDeviation="4"/>
<feComposite in2="hardAlpha" operator="out"/>
<feColorMatrix type="matrix" values="0 0 0 0 0 0 0 0 0 0 0 0 0 0 0 0 0 0 0.25 0"/>
<feBlend mode="normal" in2="BackgroundImageFix" result="effect1_dropShadow_1_2"/>
<feBlend mode="normal" in="SourceGraphic" in2="effect1_dropShadow_1_2" result="shape"/>
</filter>
</defs>
</svg>
