<svg width="350" height="350" viewBox="0 0 350 350" fill="none" xmlns="http://www.w3.org/2000/svg">
<g clip-path="url(#clip0_150_4)">
<rect width="350" height="350" rx="175" fill="#EE6F00"/>
<path d="M187.766 214H-1.93164V-8.65625H184.689V45.9824H65.8906V74.2539H170.627V126.695H65.8906V159.361H187.766V214Z" fill="white"/>
<path d="M342.631 315.936C342.631 338.494 335.746 354.607 321.977 364.275C310.355 372.479 296.342 377.703 279.936 379.949L259.574 381.707L252.982 382H141.068V159.344H258.988C280.57 159.344 296.537 163.104 306.889 170.623C317.338 178.045 324.76 186.785 329.154 196.844L331.352 208.855L332.23 214.568L332.816 219.109C332.816 230.633 329.691 240.252 323.441 247.967C322.562 249.92 320.17 252.41 316.264 255.438L307.328 261.736L319.047 268.621C323.051 271.16 326.713 274.432 330.033 278.436C338.432 287.615 342.631 300.115 342.631 315.936ZM263.529 226.287C263.529 222.186 261.918 218.67 258.695 215.74C255.375 213.201 251.078 211.932 245.805 211.932H209.184V241.668H245.805C248.148 241.668 250.639 241.229 253.275 240.35C255.521 239.764 257.768 238.299 260.014 235.955C262.357 233.514 263.529 230.291 263.529 226.287ZM272.172 310.369C272.172 304.412 270.17 300.408 266.166 298.357C260.99 295.525 254.203 294.109 245.805 294.109H209.184V329.559H251.518C253.959 329.559 255.766 329.363 256.938 328.973L261.332 327.068C262.992 326.482 265.531 324.578 268.949 321.355C271.098 319.207 272.172 315.545 272.172 310.369Z" fill="white"/>
</g>
<defs>
<clipPath id="clip0_150_4">
<rect width="350" height="350" rx="175" fill="white"/>
</clipPath>
</defs>
</svg>
